<svg width="75" height="32" viewBox="32 0 75 32" xmlns="http://www.w3.org/2000/svg"><g fill="#000" fill-rule="evenodd"><path d="M34 2c4.60081 0 8.311447 2.168652 13.226327 8.094727.764529.938016 1.19994 1.473434 1.306232 1.606254L51.839111 16C59.232015 25.284112 62.300121 28 69.5 28c4.815693 0 8.840966-2.079488 16.045423-11.262247l2.127321-2.72115c2.90467-3.687661 4.544664-5.6921 6.521223-7.51339l.186404-.170693c3.115569-2.835518 7.099341-4.22449 10.278346-4.327024L107 2v30.637695H32V2h2z" fill-rule="nonzero"/><path d="M0 2h32v137H0zM107 2h32v137h-32zM107 32H32v107h75z"/></g></svg>