<svg width="75" height="32" viewBox="32 107 75 32" xmlns="http://www.w3.org/2000/svg"><g fill="#000" fill-rule="evenodd"><path d="M34 109c4.60081 0 8.311447 2.168652 13.226327 8.094727.764529.938016 1.19994 1.473434 1.306232 1.606254L51.839111 123c7.392904 9.284112 10.46101 12 17.660889 12 4.815693 0 8.840966-2.079488 16.045423-11.262247l2.127321-2.72115c2.90467-3.687661 4.544664-5.6921 6.521223-7.51339l.186404-.170693c3.115569-2.835518 7.099341-4.22449 10.278346-4.327024L107 109v30.637695H32V109h2z" fill-rule="nonzero"/><path d="M0 109h32v30H0zM107 109h32v30h-32z"/></g></svg>